<svg id="svg" version="1.1" viewBox="0 0 299.76580796252927 300" width="299.76580796252927" height="300" xmlns="http://www.w3.org/2000/svg"><svg xmlns="http://www.w3.org/2000/svg"><defs><clipPath id="clip-1"><rect x="0" y="0" transform="scale(0.14651,0.14648)" width="2046" height="2048" fill="none"/></clipPath></defs><g clip-path="url(#clip-1)" fill="none" fill-rule="nonzero" stroke="none" stroke-width="1" stroke-linecap="butt" stroke-linejoin="miter" stroke-miterlimit="10" stroke-dasharray="" stroke-dashoffset="0" font-family="none" font-weight="none" font-size="none" text-anchor="none" style="mix-blend-mode: normal"><path d="M3.27083,127.83618c5.98235,0.11162 12.18117,0.03691 18.17942,0.03735l31.98117,0.00044l96.52327,0.00029v9.97148c12.15033,-0.12729 24.52629,-0.00571 36.68981,-0.00557l111.05986,-0.02476c0.16409,1.42603 0.69008,9.06592 0.36189,9.94189l-0.60803,0.04248l-295.72448,0.00146c0.0539,-7.1666 0.63207,-12.93179 1.53708,-19.96509z" fill="#febe59"/><path d="M1.67692,152.18555c17.8231,0.19189 35.956,0.02051 53.7991,0.02051l94.51091,-0.01172c-0.06007,3.30176 -0.00586,6.6665 -0.03809,9.98145c14.25279,-0.14941 28.77078,-0.00586 43.03969,-0.00586l104.72317,-0.01758c-0.15823,2.68506 -0.52745,5.96191 -0.92743,8.60596c-0.08498,0.64307 0.0044,0.90088 -0.33845,1.33008c-0.78824,0.12451 -6.16527,0.0542 -7.2817,0.0542l-16.86512,-0.00146l-59.45502,-0.00146l-209.56043,-0.00146c-0.08461,-0.85107 -0.2175,-1.75928 -0.33648,-2.61035c-0.80836,-5.77588 -1.07353,-11.52246 -1.27015,-17.34229z" fill="#febe59"/><path d="M9.15535,103.44888c4.19849,0.31025 11.19136,0.0873 15.6014,0.0873l30.01775,0.00029l95.17872,0.00601l0.02344,9.9731c5.27887,-0.1229 10.99434,-0.01494 16.29958,-0.01523l31.92227,-0.00059l95.44303,-0.00249c0.88054,3.26104 1.55743,6.65596 2.18598,9.97515l-5.07228,-0.00967l-286.73027,0.00161c1.40695,-6.95127 2.84128,-13.25962 5.13038,-20.01548z" fill="#febe59"/><path d="M4.04992,176.51953l145.93701,0.00586c-0.06007,3.29883 -0.01026,6.66943 -0.03663,9.97998l143.7147,-0.02344c-0.63294,2.55469 -1.33913,5.0918 -2.11711,7.60693c-0.20951,0.73535 -0.54356,1.64209 -0.79557,2.3833c-3.43427,0.09229 -7.2524,0.01611 -10.71597,0.01611h-20.22174h-61.13113l-189.52072,0.01904c-2.21373,-6.24902 -3.83891,-13.50439 -5.11285,-19.98779z" fill="#febe59"/><path d="M19.6688,79.12808c14.90053,0.2146 30.21423,0.03545 45.14083,0.0353l85.13774,-0.00015c0.09963,3.16523 0.02051,6.80244 0.03223,10.00342c5.07961,-0.24653 11.55988,-0.04482 16.76549,-0.04336l32.12886,-0.00132l86.29475,0.01553c1.33034,2.73149 3.09582,7.09863 4.06867,9.96943c-2.88045,0.03516 -5.85173,0.0041 -8.73804,0.00571l-269.87671,0.01333c1.97196,-5.86714 6.01687,-14.65386 9.04617,-19.9979z" fill="#febe59"/><path d="M10.61905,200.8667c5.35278,0.2417 12.11011,0.04248 17.60934,0.04395h34.22209l55.70707,-0.00146l31.83085,-0.03516c-0.04981,3.31787 -0.0293,6.6958 -0.03223,10.01953l92.76331,-0.00293h27.21041c4.8613,0 10.44345,0.12451 15.25934,-0.06006c-0.79117,1.9585 -1.91932,4.15576 -2.85261,6.06152l-2.0717,3.93457c-3.45771,0.1333 -7.67143,0.02637 -11.17895,0.02637l-21.15796,-0.00146l-64.58298,-0.00146l-163.69176,-0.01172c-3.50342,-6.42334 -6.5232,-13.09863 -9.03422,-19.97168z" fill="#febe59"/><path d="M36.25921,54.8083l113.69256,0.00894l0.02198,10.00869c2.46142,-0.1311 5.43271,-0.05566 7.94541,-0.0542l13.7737,0.00293l42.86094,-0.00015h37.61724l11.89686,-0.00557c2.2563,-0.00205 4.99903,-0.07588 7.19672,0.07178c1.66292,1.96655 5.12063,7.69512 6.44365,9.94687c-4.41884,-0.0999 -9.03839,-0.03809 -13.47188,-0.03999l-242.06646,0.01582c4.11775,-7.0418 8.83137,-13.71782 14.08929,-19.95513z" fill="#febe59"/><path d="M149.83309,225.2168c0.26812,0.29736 0.12747,8.84912 0.11575,10.01367h84.42085l24.97169,0.00146l7.41063,0.00732c1.35085,0 3.26431,0.05566 4.56388,-0.11719c-2.08928,3.07471 -5.25689,7.31689 -7.73443,10.0752c-13.10706,0.1875 -26.6859,0.00439 -39.82519,0.00586h-79.36761l-108.08521,-0.01318c-5.02086,-5.81982 -10.219,-13.32715 -14.08855,-19.92187l93.46789,-0.00586c11.2777,-0.00146 22.923,0.16553 34.1503,-0.04541z" fill="#febe59"/><path d="M62.16815,30.49453c2.7124,-0.14824 6.99234,-0.01816 9.807,-0.01802l19.4943,-0.00059l58.48671,0.01113c0.03809,3.29941 0.01026,6.65903 0.01319,9.96313c4.643,-0.13462 9.93359,-0.01685 14.61615,-0.01714l28.14663,-0.00249l36.59751,-0.00264c6.83484,-0.02373 13.66821,-0.01318 20.50158,0.03193c3.11194,2.64097 7.27731,6.98188 9.97022,9.94058l-21.90078,-0.00205l-197.81056,0.01274c6.66239,-7.37256 14.06013,-14.04595 22.07806,-19.9166z" fill="#febe59"/><path d="M40.11455,249.59326l71.65868,0.00146c12.66796,0 25.56405,0.12158 38.21662,-0.03662c-0.08351,3.25049 -0.02637,6.73535 -0.03663,10.00342l99.8604,0.00293c-1.6219,1.45459 -3.26285,2.88574 -4.92577,4.29346c-2.06583,1.80469 -4.98584,4.06494 -7.22456,5.6499c-2.08781,0.12598 -5.35066,0.02783 -7.55422,0.02783h-14.86961h-45.15387h-71.06852c-12.06828,0 -24.75104,0.22119 -36.75574,-0.02637c-1.57399,-1.03711 -3.74868,-2.79785 -5.22202,-3.97998c-6.05084,-4.85889 -11.70991,-10.18799 -16.92475,-15.93604z" fill="#febe59"/><path d="M149.86972,1.70518c0.17728,0.36338 0.12454,11.04892 0.06447,12.18674c4.49795,-0.14046 9.66693,-0.01824 14.20591,-0.01783l27.3496,0.00819l10.86541,-0.02019c1.19555,-0.00397 5.65541,-0.14127 6.46709,0.16255c7.99962,2.9964 15.34139,7.62999 22.61283,12.04239l-81.03933,0.00205l-52.99994,-0.00308c-9.58723,-0.00015 -19.31819,-0.08672 -28.8877,0.02915c4.20419,-2.9272 9.81521,-6.05156 14.37601,-8.36426c21.4649,-10.8841 43.04364,-15.73503 66.98564,-16.02573z" fill="#febe59"/><path d="M68.62615,273.93018l81.36664,-0.02197c-0.10842,3.94043 -0.04102,8.24707 -0.01758,12.20801c4.96093,-0.1582 10.29255,0.04102 15.30915,-0.01904c14.46377,-0.17432 29.23815,0.24756 43.67409,-0.03223c-2.95517,1.25391 -5.94257,2.42871 -8.95928,3.52588c-6.70737,2.52832 -15.32674,4.78418 -22.33592,6.09961c-31.18326,5.92383 -63.44501,1.68457 -92.03807,-12.09521c-5.50713,-2.66162 -11.93071,-6.19775 -16.99904,-9.66504z" fill="#febe59"/></g></svg></svg>
